<?xml version="1.0" encoding="utf-8"?>
<svg xmlns="http://www.w3.org/2000/svg" height="512pt" version="1.1" viewBox="0 0 512 512" width="512pt">
<path d="M 0.00 0.00 L 512.00 0.00 L 512.00 512.00 L 0.00 512.00 L 0.00 0.00 Z" fill="#483061" opacity="1.00" stroke="#483061" stroke-width="0.25"/>
<path d="M 217.89 67.83 C 229.53 62.92 240.98 55.81 254.05 56.16 C 265.22 55.79 275.67 60.48 285.37 65.52 C 301.11 73.63 317.26 80.94 332.98 89.12 C 347.77 96.18 362.73 102.97 376.94 111.19 C 383.28 114.82 388.99 119.55 393.62 125.22 C 398.79 133.37 400.09 143.71 397.42 152.94 C 397.80 152.84 398.57 152.63 398.96 152.53 C 397.20 154.40 394.97 155.66 392.40 155.95 C 392.69 151.23 392.90 146.45 392.30 141.76 C 390.88 135.73 388.25 129.55 383.18 125.70 C 374.05 117.76 362.59 113.48 351.97 107.98 C 327.13 95.45 302.28 82.91 277.28 70.69 C 269.73 67.08 261.54 64.18 253.05 64.82 C 244.16 65.31 236.07 69.36 228.22 73.17 C 216.16 78.70 204.08 84.17 191.97 89.59 C 185.12 92.66 178.22 95.69 171.10 98.12 C 168.21 99.17 165.27 100.24 162.16 100.34 C 162.14 99.77 162.09 98.65 162.06 98.09 C 162.87 96.15 163.64 94.19 164.33 92.20 C 166.96 89.85 170.75 89.40 173.84 87.81 C 188.54 81.19 203.36 74.83 217.89 67.83 Z" fill="#3f69ed" opacity="1.00" stroke="#3f69ed" stroke-width="0.25"/>
<path d="M 228.22 73.17 C 236.07 69.36 244.16 65.31 253.05 64.82 C 261.54 64.18 269.73 67.08 277.28 70.69 C 302.28 82.91 327.13 95.45 351.97 107.98 C 362.59 113.48 374.05 117.76 383.18 125.70 C 383.12 129.64 383.81 133.53 384.00 137.46 C 380.27 131.11 374.24 126.51 367.58 123.56 C 340.74 110.54 314.51 96.30 287.71 83.19 C 277.60 78.34 267.58 71.92 256.02 71.68 C 247.33 71.28 239.51 75.56 231.87 79.09 C 221.58 83.72 211.32 88.44 201.06 93.13 C 200.41 92.16 199.77 91.19 199.10 90.23 C 198.70 90.17 197.89 90.07 197.49 90.01 C 197.54 91.01 197.59 92.01 197.65 93.01 C 195.99 91.50 194.12 90.27 191.97 89.59 C 204.08 84.17 216.16 78.70 228.22 73.17 Z" fill="#3a2486" opacity="1.00" stroke="#3a2486" stroke-width="0.25"/>
<path d="M 108.47 98.20 C 104.49 87.57 105.97 75.53 110.81 65.46 C 117.23 66.61 122.69 70.44 128.14 73.80 C 131.43 75.73 133.80 78.94 137.07 80.82 C 140.13 80.76 142.27 78.05 144.99 76.96 C 149.95 74.75 154.99 72.46 160.35 71.39 C 161.67 71.31 164.20 71.70 163.84 73.49 C 162.68 75.29 161.88 77.75 159.67 78.50 C 152.70 78.37 145.63 81.12 140.54 85.87 C 138.26 88.73 137.54 92.39 136.21 95.71 C 135.98 96.08 135.52 96.80 135.30 97.16 C 134.89 93.64 134.55 90.05 133.25 86.73 C 131.68 83.23 128.38 81.02 125.52 78.65 C 122.39 76.10 119.02 73.85 115.40 72.05 C 110.87 79.33 110.72 88.57 113.81 96.42 C 115.48 99.25 117.94 101.48 120.46 103.53 L 120.30 103.63 C 117.00 103.16 113.66 102.84 110.33 103.22 C 108.25 103.66 106.19 104.22 104.23 105.06 C 100.77 106.69 97.39 108.75 95.18 111.96 C 96.87 114.09 98.73 116.10 100.98 117.63 C 102.77 118.75 104.67 119.68 106.61 120.52 C 107.06 120.69 107.94 121.03 108.39 121.20 C 108.77 122.05 109.17 122.89 109.59 123.72 C 107.84 123.89 106.16 124.44 104.41 124.60 C 101.60 123.77 99.27 121.80 96.88 120.15 C 93.67 117.63 90.05 115.67 86.92 113.03 C 90.16 108.60 94.25 104.58 99.31 102.30 C 102.28 100.75 105.55 99.88 108.47 98.20 Z" fill="#22194f" opacity="1.00" stroke="#22194f" stroke-width="0.25"/>
<path d="M 113.81 96.42 C 110.72 88.57 110.87 79.33 115.40 72.05 C 119.02 73.85 122.39 76.10 125.52 78.65 C 124.99 81.68 125.22 85.36 122.51 87.45 C 119.36 90.18 115.99 92.77 113.81 96.42 Z" fill="#b3e3c3" opacity="1.00" stroke="#b3e3c3" stroke-width="0.25"/>
<path d="M 231.87 79.09 C 239.51 75.56 247.33 71.28 256.02 71.68 C 267.58 71.92 277.60 78.34 287.71 83.19 C 314.51 96.30 340.74 110.54 367.58 123.56 C 374.24 126.51 380.27 131.11 384.00 137.46 C 387.63 145.22 386.02 153.82 386.27 162.05 C 386.07 165.57 388.39 168.35 390.33 171.02 C 388.25 174.86 386.56 178.95 385.74 183.26 C 370.82 183.18 355.89 182.89 340.96 183.04 C 334.77 183.17 328.48 181.96 322.37 183.40 C 321.14 182.16 319.91 180.93 318.64 179.74 C 317.50 178.70 316.34 177.69 315.14 176.73 C 306.15 169.23 294.35 166.35 283.20 163.71 C 278.93 162.68 274.58 162.02 270.21 161.63 C 252.06 159.28 233.16 160.67 215.86 166.85 C 207.19 170.07 198.06 173.57 191.60 180.45 C 186.75 180.63 181.90 180.57 177.05 180.61 C 170.93 180.18 165.03 185.83 165.31 191.98 C 165.17 206.23 165.36 220.50 165.08 234.75 C 156.28 242.27 150.59 252.75 146.21 263.30 C 143.86 268.53 143.59 274.34 141.92 279.77 C 140.07 276.82 137.76 274.15 134.91 272.14 C 132.07 274.79 130.63 278.46 128.96 281.87 C 122.44 270.28 112.37 260.93 101.26 253.78 L 100.14 253.59 C 100.53 253.57 101.31 253.53 101.70 253.51 C 102.13 251.71 102.35 249.87 102.31 248.03 C 102.25 223.67 102.28 199.32 102.18 174.96 C 102.02 167.40 101.00 159.62 103.03 152.22 C 106.21 143.92 114.38 139.07 122.23 135.89 C 123.77 142.63 129.14 147.41 133.59 152.33 C 136.25 154.60 138.40 158.13 141.93 158.97 C 149.45 155.16 153.68 146.74 155.14 138.69 C 164.58 138.21 174.57 137.71 183.02 133.04 C 183.64 129.75 181.72 126.69 180.11 123.98 C 178.30 121.32 176.77 118.14 173.61 116.86 C 171.47 113.52 168.87 110.51 166.14 107.65 C 177.92 103.14 189.51 98.18 201.06 93.13 C 211.32 88.44 221.58 83.72 231.87 79.09 Z" fill="#ffffff" opacity="1.00" stroke="#ffffff" stroke-width="0.25"/>
<path d="M 159.67 78.50 C 161.88 77.75 162.68 75.29 163.84 73.49 C 166.32 79.46 164.63 85.99 164.33 92.20 C 163.64 94.19 162.87 96.15 162.06 98.09 C 161.71 98.52 161.02 99.39 160.67 99.82 C 160.34 100.21 159.68 100.99 159.35 101.39 C 159.42 102.24 159.50 103.09 159.59 103.94 C 157.57 103.21 155.41 101.47 153.26 102.81 C 156.39 105.00 160.19 106.32 162.80 109.20 C 163.87 110.03 163.60 111.34 163.52 112.51 C 159.32 108.31 153.65 106.25 147.98 104.90 C 150.39 102.88 152.76 100.77 154.60 98.21 C 158.36 92.85 159.73 86.10 159.73 79.65 L 159.67 78.50 Z" fill="#181545" opacity="1.00" stroke="#181545" stroke-width="0.25"/>
<path d="M 125.52 78.65 C 128.38 81.02 131.68 83.23 133.25 86.73 C 134.55 90.05 134.89 93.64 135.30 97.16 C 135.21 98.36 135.11 99.56 135.00 100.76 C 130.74 99.80 125.33 103.09 126.47 107.92 C 126.65 112.53 130.64 115.79 135.11 115.70 C 134.28 116.48 133.48 117.29 132.69 118.12 C 134.88 119.85 137.16 121.58 138.66 124.00 C 136.12 129.64 138.40 136.67 134.42 141.68 C 134.87 142.07 135.77 142.86 136.23 143.26 C 133.25 145.16 131.47 141.07 129.70 139.28 C 125.73 133.00 123.40 125.47 124.41 118.00 C 120.99 119.72 117.54 121.69 113.63 121.91 C 114.42 119.68 115.39 117.51 116.53 115.44 C 118.91 111.81 116.80 106.77 120.30 103.63 L 120.46 103.53 C 117.94 101.48 115.48 99.25 113.81 96.42 C 115.99 92.77 119.36 90.18 122.51 87.45 C 125.22 85.36 124.99 81.68 125.52 78.65 Z" fill="#93d2a8" opacity="1.00" stroke="#93d2a8" stroke-width="0.25"/>
<path d="M 140.54 85.87 C 145.63 81.12 152.70 78.37 159.67 78.50 L 159.73 79.65 C 152.70 79.87 146.59 83.65 140.74 87.17 L 140.54 85.87 Z" fill="#c5eccc" opacity="1.00" stroke="#c5eccc" stroke-width="0.25"/>
<path d="M 140.74 87.17 C 146.59 83.65 152.70 79.87 159.73 79.65 C 159.73 86.10 158.36 92.85 154.60 98.21 C 152.71 98.02 150.96 98.69 149.32 99.53 C 149.18 99.02 148.90 98.02 148.76 97.52 C 146.48 98.58 143.91 98.81 141.73 97.38 C 140.90 97.81 140.08 98.24 139.25 98.67 C 138.24 97.68 137.22 96.70 136.21 95.71 C 137.54 92.39 138.26 88.73 140.54 85.87 L 140.74 87.17 Z" fill="#97d3a7" opacity="1.00" stroke="#97d3a7" stroke-width="0.25"/>
<path d="M 171.10 98.12 C 178.22 95.69 185.12 92.66 191.97 89.59 C 194.12 90.27 195.99 91.50 197.65 93.01 C 197.59 92.01 197.54 91.01 197.49 90.01 C 197.89 90.07 198.70 90.17 199.10 90.23 C 199.77 91.19 200.41 92.16 201.06 93.13 C 189.51 98.18 177.92 103.14 166.14 107.65 C 164.22 105.09 163.18 101.93 160.67 99.82 C 161.02 99.39 161.71 98.52 162.06 98.09 C 162.09 98.65 162.14 99.77 162.16 100.34 C 165.27 100.24 168.21 99.17 171.10 98.12 Z" fill="#321f72" opacity="1.00" stroke="#321f72" stroke-width="0.25"/>
<path d="M 135.30 97.16 C 135.52 96.80 135.98 96.08 136.21 95.71 C 137.22 96.70 138.24 97.68 139.25 98.67 C 140.08 98.24 140.90 97.81 141.73 97.38 C 143.91 98.81 146.48 98.58 148.76 97.52 C 148.90 98.02 149.18 99.02 149.32 99.53 C 150.96 98.69 152.71 98.02 154.60 98.21 C 152.76 100.77 150.39 102.88 147.98 104.90 C 153.65 106.25 159.32 108.31 163.52 112.51 C 165.68 115.76 168.40 120.06 165.66 123.80 C 161.54 125.50 156.95 126.41 152.56 125.24 C 148.58 124.01 145.35 121.26 142.00 118.91 C 143.18 123.50 144.14 128.37 142.79 133.05 C 141.99 137.18 139.03 140.32 136.23 143.26 C 135.77 142.86 134.87 142.07 134.42 141.68 C 138.40 136.67 136.12 129.64 138.66 124.00 C 137.16 121.58 134.88 119.85 132.69 118.12 C 133.48 117.29 134.28 116.48 135.11 115.70 C 138.00 113.68 140.69 110.81 140.70 107.06 C 141.08 103.69 137.51 102.02 135.00 100.76 C 135.11 99.56 135.21 98.36 135.30 97.16 Z" fill="#8bd1a1" opacity="1.00" stroke="#8bd1a1" stroke-width="0.25"/>
<path d="M 159.35 101.39 C 159.68 100.99 160.34 100.21 160.67 99.82 C 163.18 101.93 164.22 105.09 166.14 107.65 C 168.87 110.51 171.47 113.52 173.61 116.86 C 174.01 117.71 174.39 118.57 174.76 119.45 C 174.26 121.55 173.92 123.69 173.67 125.84 C 173.01 124.94 172.34 124.05 171.67 123.16 C 169.73 123.81 167.67 124.86 165.66 123.80 C 168.40 120.06 165.68 115.76 163.52 112.51 C 163.60 111.34 163.87 110.03 162.80 109.20 C 160.19 106.32 156.39 105.00 153.26 102.81 C 155.41 101.47 157.57 103.21 159.59 103.94 C 159.50 103.09 159.42 102.24 159.35 101.39 Z" fill="#1f1955" opacity="1.00" stroke="#1f1955" stroke-width="0.25"/>
<path d="M 126.47 107.92 C 125.33 103.09 130.74 99.80 135.00 100.76 C 137.51 102.02 141.08 103.69 140.70 107.06 C 140.69 110.81 138.00 113.68 135.11 115.70 C 130.64 115.79 126.65 112.53 126.47 107.92 Z" fill="#1a1b3e" opacity="1.00" stroke="#1a1b3e" stroke-width="0.25"/>
<path d="M 131.37 102.44 C 134.12 101.87 137.06 102.99 138.53 105.43 C 139.81 109.22 135.89 113.41 132.02 112.57 C 127.16 111.82 125.97 103.34 131.37 102.44 Z" fill="#fc9751" opacity="1.00" stroke="#fc9751" stroke-width="0.25"/>
<path d="M 110.33 103.22 C 113.66 102.84 117.00 103.16 120.30 103.63 C 116.80 106.77 118.91 111.81 116.53 115.44 C 115.39 117.51 114.42 119.68 113.63 121.91 C 111.87 121.75 110.12 121.50 108.39 121.20 C 107.94 121.03 107.06 120.69 106.61 120.52 C 109.27 115.15 110.06 109.14 110.33 103.22 Z" fill="#9cd6ae" opacity="1.00" stroke="#9cd6ae" stroke-width="0.25"/>
<path d="M 104.23 105.06 C 106.19 104.22 108.25 103.66 110.33 103.22 C 110.06 109.14 109.27 115.15 106.61 120.52 C 104.67 119.68 102.77 118.75 100.98 117.63 C 104.89 114.70 104.23 109.38 104.23 105.06 Z" fill="#aedebb" opacity="1.00" stroke="#aedebb" stroke-width="0.25"/>
<path d="M 95.18 111.96 C 97.39 108.75 100.77 106.69 104.23 105.06 C 104.23 109.38 104.89 114.70 100.98 117.63 C 98.73 116.10 96.87 114.09 95.18 111.96 Z" fill="#c5eccc" opacity="1.00" stroke="#c5eccc" stroke-width="0.25"/>
<path d="M 173.61 116.86 C 176.77 118.14 178.30 121.32 180.11 123.98 C 181.72 126.69 183.64 129.75 183.02 133.04 C 174.57 137.71 164.58 138.21 155.14 138.69 C 155.02 136.44 154.75 134.21 154.49 131.98 C 157.76 131.86 161.03 131.61 164.27 131.05 C 167.77 130.36 171.78 130.08 174.45 127.42 C 176.60 125.27 175.74 121.94 174.76 119.45 C 174.39 118.57 174.01 117.71 173.61 116.86 Z" fill="#ced4dc" opacity="1.00" stroke="#ced4dc" stroke-width="0.25"/>
<path d="M 113.63 121.91 C 117.54 121.69 120.99 119.72 124.41 118.00 C 123.40 125.47 125.73 133.00 129.70 139.28 C 129.30 139.30 128.51 139.33 128.12 139.35 C 125.83 137.16 124.15 134.42 122.09 132.02 C 121.91 131.73 121.56 131.15 121.38 130.86 C 120.95 129.16 120.59 127.44 120.25 125.72 C 115.22 127.11 109.98 126.53 104.85 126.22 L 104.41 124.60 C 106.16 124.44 107.84 123.89 109.59 123.72 C 109.17 122.89 108.77 122.05 108.39 121.20 C 110.12 121.50 111.87 121.75 113.63 121.91 Z" fill="#1a1b3e" opacity="1.00" stroke="#1a1b3e" stroke-width="0.25"/>
<path d="M 142.00 118.91 C 145.35 121.26 148.58 124.01 152.56 125.24 C 156.95 126.41 161.54 125.50 165.66 123.80 C 167.67 124.86 169.73 123.81 171.67 123.16 C 172.34 124.05 173.01 124.94 173.67 125.84 C 173.92 123.69 174.26 121.55 174.76 119.45 C 175.74 121.94 176.60 125.27 174.45 127.42 C 171.78 130.08 167.77 130.36 164.27 131.05 C 159.31 131.36 154.34 131.10 149.47 130.13 C 148.09 139.42 141.88 148.04 133.59 152.33 C 129.14 147.41 123.77 142.63 122.23 135.89 C 122.19 134.60 122.14 133.31 122.09 132.02 C 124.15 134.42 125.83 137.16 128.12 139.35 C 128.51 139.33 129.30 139.30 129.70 139.28 C 131.47 141.07 133.25 145.16 136.23 143.26 C 139.03 140.32 141.99 137.18 142.79 133.05 C 144.14 128.37 143.18 123.50 142.00 118.91 Z" fill="#17144d" opacity="1.00" stroke="#17144d" stroke-width="0.25"/>
<path d="M 393.82 123.76 C 396.81 125.67 398.33 129.01 400.12 131.94 C 403.62 137.75 404.07 144.78 404.28 151.39 C 402.46 151.53 400.69 152.00 398.96 152.53 C 398.57 152.63 397.80 152.84 397.42 152.94 C 400.09 143.71 398.79 133.37 393.62 125.22 L 393.82 123.76 Z" fill="#201856" opacity="1.00" stroke="#201856" stroke-width="0.25"/>
<path d="M 104.85 126.22 C 109.98 126.53 115.22 127.11 120.25 125.72 C 120.59 127.44 120.95 129.16 121.38 130.86 C 120.80 132.82 118.72 132.56 117.13 132.73 C 114.41 132.83 111.59 133.12 108.93 132.36 C 106.72 131.63 105.83 129.34 104.83 127.47 L 104.85 126.22 Z" fill="#4364e0" opacity="1.00" stroke="#4364e0" stroke-width="0.25"/>
<path d="M 383.18 125.70 C 388.25 129.55 390.88 135.73 392.30 141.76 C 392.90 146.45 392.69 151.23 392.40 155.95 C 391.42 159.27 390.81 165.73 395.98 165.30 C 394.11 167.22 392.21 169.11 390.33 171.02 C 388.39 168.35 386.07 165.57 386.27 162.05 C 386.02 153.82 387.63 145.22 384.00 137.46 C 383.81 133.53 383.12 129.64 383.18 125.70 Z" fill="#3c38a4" opacity="1.00" stroke="#3c38a4" stroke-width="0.25"/>
<path d="M 103.95 126.66 L 104.83 127.47 C 105.83 129.34 106.72 131.63 108.93 132.36 C 111.59 133.12 114.41 132.83 117.13 132.73 C 118.72 132.56 120.80 132.82 121.38 130.86 C 121.56 131.15 121.91 131.73 122.09 132.02 C 122.14 133.31 122.19 134.60 122.23 135.89 C 114.38 139.07 106.21 143.92 103.03 152.22 C 101.00 159.62 102.02 167.40 102.18 174.96 C 102.28 199.32 102.25 223.67 102.31 248.03 C 102.35 249.87 102.13 251.71 101.70 253.51 C 101.31 253.53 100.53 253.57 100.14 253.59 C 97.97 253.47 96.09 252.33 94.23 251.31 C 94.39 249.20 94.51 247.08 94.53 244.97 C 94.55 216.30 94.55 187.62 94.48 158.95 C 94.43 154.18 95.53 149.29 98.37 145.38 C 100.94 141.51 104.70 138.67 107.48 134.98 C 106.99 132.44 104.66 130.69 103.44 128.46 C 103.56 128.01 103.82 127.11 103.95 126.66 Z" fill="#352978" opacity="1.00" stroke="#352978" stroke-width="0.25"/>
<path d="M 88.81 142.87 C 92.10 136.69 97.58 132.10 103.44 128.46 C 104.66 130.69 106.99 132.44 107.48 134.98 C 104.70 138.67 100.94 141.51 98.37 145.38 C 95.53 149.29 94.43 154.18 94.48 158.95 C 94.55 187.62 94.55 216.30 94.53 244.97 C 94.51 247.08 94.39 249.20 94.23 251.31 C 91.46 249.69 88.20 249.65 85.09 249.40 C 84.47 239.61 84.98 229.80 84.95 220.00 C 84.46 202.66 85.43 185.34 85.19 168.00 C 85.38 159.58 84.18 150.40 88.81 142.87 Z" fill="#456df2" opacity="1.00" stroke="#456df2" stroke-width="0.25"/>
<path d="M 149.47 130.13 C 154.34 131.10 159.31 131.36 164.27 131.05 C 161.03 131.61 157.76 131.86 154.49 131.98 C 154.75 134.21 155.02 136.44 155.14 138.69 C 153.68 146.74 149.45 155.16 141.93 158.97 C 138.40 158.13 136.25 154.60 133.59 152.33 C 141.88 148.04 148.09 139.42 149.47 130.13 Z" fill="#bfc6d1" opacity="1.00" stroke="#bfc6d1" stroke-width="0.25"/>
<path d="M 398.96 152.53 C 400.69 152.00 402.46 151.53 404.28 151.39 C 408.85 152.68 413.74 153.33 417.90 155.73 L 417.01 156.72 C 415.64 158.15 414.44 159.76 413.57 161.55 C 407.55 159.75 400.92 161.63 395.98 165.30 C 390.81 165.73 391.42 159.27 392.40 155.95 C 394.97 155.66 397.20 154.40 398.96 152.53 Z" fill="#486efc" opacity="1.00" stroke="#486efc" stroke-width="0.25"/>
<path d="M 417.01 156.72 C 423.84 151.02 434.63 148.35 442.41 153.61 C 440.84 154.93 439.24 156.22 437.64 157.50 C 432.59 155.65 426.34 155.38 422.03 159.05 C 418.59 161.89 417.98 166.58 417.55 170.74 C 415.77 169.32 413.82 168.15 411.84 167.07 C 411.95 166.79 412.17 166.25 412.28 165.98 C 413.46 164.87 413.11 162.99 413.57 161.55 C 414.44 159.76 415.64 158.15 417.01 156.72 Z" fill="#201e47" opacity="1.00" stroke="#201e47" stroke-width="0.25"/>
<path d="M 437.64 157.50 C 439.24 156.22 440.84 154.93 442.41 153.61 C 448.49 157.31 452.89 164.03 452.56 171.31 C 457.91 172.54 462.06 176.58 465.04 180.99 C 468.89 187.80 468.59 196.78 464.36 203.37 C 461.90 208.07 456.47 210.39 451.35 210.48 C 452.32 216.75 447.12 221.29 442.36 224.28 C 437.67 226.92 432.40 228.53 427.05 229.05 C 426.67 229.24 425.91 229.62 425.53 229.82 C 430.10 236.08 437.70 239.50 441.94 246.04 C 441.68 246.26 441.16 246.69 440.89 246.90 C 432.76 240.11 425.39 232.38 416.51 226.52 C 412.96 224.27 410.19 221.09 407.03 218.37 C 404.99 219.79 403.03 221.39 401.40 223.28 C 401.18 226.51 402.14 229.79 401.37 232.98 C 400.22 237.02 397.70 240.54 394.55 243.27 C 397.19 246.87 399.90 250.53 401.24 254.85 C 402.05 257.77 404.44 259.76 406.71 261.59 C 406.21 261.89 405.23 262.49 404.74 262.79 C 403.44 262.67 402.14 262.47 400.85 262.30 C 401.75 264.93 404.56 265.82 406.84 266.93 C 406.79 272.31 407.03 277.70 406.53 283.06 C 406.52 283.30 406.48 283.77 406.47 284.01 C 395.12 278.85 383.06 275.17 372.31 268.76 C 367.69 266.12 364.78 261.35 363.75 256.21 C 360.32 258.81 356.59 261.33 352.26 262.03 C 348.78 261.68 345.27 261.86 341.83 262.45 C 341.32 262.08 340.82 261.71 340.33 261.35 C 335.24 257.78 330.34 252.61 330.20 246.02 C 329.68 239.14 334.57 233.25 340.12 229.83 C 337.48 227.55 334.93 225.15 332.47 222.67 C 334.01 222.45 335.57 222.25 337.12 221.98 C 335.29 219.56 331.91 217.75 332.25 214.29 C 334.74 216.77 337.29 219.20 339.60 221.86 C 339.04 217.90 339.89 213.98 340.99 210.20 C 333.18 202.63 325.95 194.46 317.86 187.19 C 316.87 186.34 315.90 185.50 314.90 184.67 C 316.16 183.04 317.40 181.39 318.64 179.74 C 319.91 180.93 321.14 182.16 322.37 183.40 C 330.13 191.35 338.94 198.52 345.05 207.91 C 347.19 207.25 349.38 206.83 351.60 206.54 C 355.50 199.59 364.73 195.52 372.29 198.72 C 377.63 200.99 381.27 206.10 382.48 211.69 C 387.63 210.95 393.07 213.65 397.90 211.14 C 388.97 205.15 384.75 193.74 385.74 183.26 C 386.56 178.95 388.25 174.86 390.33 171.02 C 392.21 169.11 394.11 167.22 395.98 165.30 C 400.92 161.63 407.55 159.75 413.57 161.55 C 413.11 162.99 413.46 164.87 412.28 165.98 C 406.36 166.75 399.26 168.32 395.98 174.00 C 390.61 182.10 390.24 194.40 397.43 201.54 C 399.13 203.08 401.16 204.84 403.60 204.66 C 407.10 203.00 409.64 199.06 413.89 199.35 C 414.42 199.62 415.48 200.16 416.01 200.43 C 414.27 203.03 411.11 205.57 412.03 209.05 C 413.13 213.98 415.93 219.22 421.00 220.95 C 428.27 223.48 437.76 222.13 442.39 215.46 C 444.95 211.87 443.71 207.20 441.67 203.70 C 441.55 202.78 441.55 201.85 441.68 200.94 C 444.71 202.08 447.70 204.07 451.08 203.65 C 454.65 203.06 457.28 200.25 459.36 197.48 C 462.87 191.28 461.49 183.23 456.10 178.57 C 454.80 177.94 453.49 177.13 452.00 177.17 C 447.35 176.95 444.39 181.94 439.70 181.51 C 442.72 178.61 445.83 175.24 446.52 170.96 C 447.23 165.04 442.99 159.57 437.64 157.50 Z" fill="#1f1352" opacity="1.00" stroke="#1f1352" stroke-width="0.25"/>
<path d="M 422.03 159.05 C 426.34 155.38 432.59 155.65 437.64 157.50 C 442.99 159.57 447.23 165.04 446.52 170.96 C 445.83 175.24 442.72 178.61 439.70 181.51 C 438.54 181.92 437.38 182.29 436.21 182.65 C 434.25 180.64 431.86 179.14 429.20 178.25 C 426.90 178.05 424.58 178.22 422.37 178.91 C 421.36 178.46 420.36 178.01 419.36 177.56 C 419.09 175.21 418.82 172.79 417.55 170.74 C 417.98 166.58 418.59 161.89 422.03 159.05 Z" fill="#f8b94a" opacity="1.00" stroke="#f8b94a" stroke-width="0.25"/>
<path d="M 215.86 166.85 C 233.16 160.67 252.06 159.28 270.21 161.63 C 267.59 161.88 264.97 162.11 262.34 162.23 C 262.18 166.28 261.97 170.33 261.89 174.38 C 261.50 174.44 260.71 174.56 260.32 174.62 C 260.07 175.61 259.82 176.61 259.58 177.61 C 258.38 177.96 257.19 178.32 256.00 178.68 C 261.14 178.99 266.29 179.13 271.43 178.84 C 275.09 179.52 279.23 178.30 282.51 180.44 C 252.21 180.55 221.90 180.59 191.60 180.45 C 198.06 173.57 207.19 170.07 215.86 166.85 Z" fill="#d1d9e0" opacity="1.00" stroke="#d1d9e0" stroke-width="0.25"/>
<path d="M 262.34 162.23 C 264.97 162.11 267.59 161.88 270.21 161.63 C 274.58 162.02 278.93 162.68 283.20 163.71 C 282.74 163.82 281.83 164.05 281.37 164.16 C 282.19 165.50 283.02 166.83 283.87 168.16 C 282.74 168.97 281.63 169.80 280.56 170.68 C 279.79 172.82 279.30 175.14 277.98 177.03 C 275.92 177.94 273.54 177.98 271.43 178.84 C 266.29 179.13 261.14 178.99 256.00 178.68 C 257.19 178.32 258.38 177.96 259.58 177.61 C 259.82 176.61 260.07 175.61 260.32 174.62 C 260.71 174.56 261.50 174.44 261.89 174.38 C 261.97 170.33 262.18 166.28 262.34 162.23 Z" fill="#c9d1da" opacity="1.00" stroke="#c9d1da" stroke-width="0.25"/>
<path d="M 281.37 164.16 C 281.83 164.05 282.74 163.82 283.20 163.71 C 294.35 166.35 306.15 169.23 315.14 176.73 C 314.57 176.60 313.44 176.35 312.87 176.22 C 311.88 177.32 310.08 178.31 310.44 180.07 C 311.47 181.99 313.29 183.28 314.90 184.67 C 315.90 185.50 316.87 186.34 317.86 187.19 C 313.50 188.43 309.78 184.79 305.63 184.03 C 304.10 182.73 302.75 180.76 300.56 180.71 C 294.55 180.31 288.52 180.79 282.51 180.44 C 279.23 178.30 275.09 179.52 271.43 178.84 C 273.54 177.98 275.92 177.94 277.98 177.03 C 279.30 175.14 279.79 172.82 280.56 170.68 C 281.63 169.80 282.74 168.97 283.87 168.16 C 283.02 166.83 282.19 165.50 281.37 164.16 Z" fill="#c1cad5" opacity="1.00" stroke="#c1cad5" stroke-width="0.25"/>
<path d="M 395.98 174.00 C 399.26 168.32 406.36 166.75 412.28 165.98 C 412.17 166.25 411.95 166.79 411.84 167.07 C 413.82 168.15 415.77 169.32 417.55 170.74 C 418.82 172.79 419.09 175.21 419.36 177.56 C 420.36 178.01 421.36 178.46 422.37 178.91 C 418.21 182.06 415.97 187.65 418.59 192.53 C 416.91 194.18 415.92 196.28 415.31 198.53 C 414.96 198.73 414.25 199.14 413.89 199.35 C 409.64 199.06 407.10 203.00 403.60 204.66 C 401.16 204.84 399.13 203.08 397.43 201.54 C 390.24 194.40 390.61 182.10 395.98 174.00 Z" fill="#f8c438" opacity="1.00" stroke="#f8c438" stroke-width="0.25"/>
<path d="M 310.44 180.07 C 310.08 178.31 311.88 177.32 312.87 176.22 C 313.44 176.35 314.57 176.60 315.14 176.73 C 316.34 177.69 317.50 178.70 318.64 179.74 C 317.40 181.39 316.16 183.04 314.90 184.67 C 313.29 183.28 311.47 181.99 310.44 180.07 Z" fill="#20123f" opacity="1.00" stroke="#20123f" stroke-width="0.25"/>
<path d="M 439.70 181.51 C 444.39 181.94 447.35 176.95 452.00 177.17 C 453.49 177.13 454.80 177.94 456.10 178.57 C 454.16 178.50 452.08 178.18 450.33 179.25 C 446.45 181.37 442.26 182.77 438.09 184.17 C 438.03 184.63 437.90 185.56 437.84 186.02 C 437.62 188.47 436.94 190.84 436.18 193.17 C 436.81 189.69 437.18 186.10 436.21 182.65 C 437.38 182.29 438.54 181.92 439.70 181.51 Z" fill="#aa536b" opacity="1.00" stroke="#aa536b" stroke-width="0.25"/>
<path d="M 450.33 179.25 C 452.08 178.18 454.16 178.50 456.10 178.57 C 461.49 183.23 462.87 191.28 459.36 197.48 C 457.73 197.54 456.07 197.89 454.46 197.53 C 451.29 195.79 449.34 192.58 446.55 190.37 C 444.04 188.23 440.89 187.12 437.84 186.02 C 437.90 185.56 438.03 184.63 438.09 184.17 C 442.26 182.77 446.45 181.37 450.33 179.25 Z" fill="#f88d8a" opacity="1.00" stroke="#f88d8a" stroke-width="0.25"/>
<path d="M 422.37 178.91 C 424.58 178.22 426.90 178.05 429.20 178.25 C 429.70 180.24 430.13 182.31 429.38 184.30 C 428.15 187.58 429.55 191.41 427.40 194.39 C 426.41 196.66 423.40 195.86 421.46 196.41 C 420.41 195.18 419.47 193.87 418.59 192.53 C 415.97 187.65 418.21 182.06 422.37 178.91 Z" fill="#3c1877" opacity="1.00" stroke="#3c1877" stroke-width="0.25"/>
<path d="M 429.20 178.25 C 431.86 179.14 434.25 180.64 436.21 182.65 C 432.73 185.67 433.12 190.60 431.34 194.51 C 431.01 195.63 430.15 196.78 430.83 197.97 C 428.32 198.53 425.74 198.39 423.20 198.17 C 422.77 197.73 421.89 196.85 421.46 196.41 C 423.40 195.86 426.41 196.66 427.40 194.39 C 429.55 191.41 428.15 187.58 429.38 184.30 C 430.13 182.31 429.70 180.24 429.20 178.25 Z" fill="#21105f" opacity="1.00" stroke="#21105f" stroke-width="0.25"/>
<path d="M 177.05 180.61 C 181.90 180.57 186.75 180.63 191.60 180.45 C 221.90 180.59 252.21 180.55 282.51 180.44 C 288.52 180.79 294.55 180.31 300.56 180.71 C 302.75 180.76 304.10 182.73 305.63 184.03 C 314.10 194.46 323.26 204.31 332.25 214.29 C 331.91 217.75 335.29 219.56 337.12 221.98 C 335.57 222.25 334.01 222.45 332.47 222.67 C 323.77 213.67 315.36 204.38 307.14 194.94 C 304.59 192.12 302.55 188.73 299.34 186.60 C 294.91 186.07 290.42 186.50 285.97 186.41 C 249.64 186.36 213.31 186.43 176.98 186.50 C 174.99 186.41 172.52 186.89 171.81 189.06 C 171.48 191.03 171.53 193.05 171.52 195.04 C 171.52 244.02 171.17 293.00 171.34 341.99 C 171.06 344.43 172.21 347.56 175.12 347.49 C 185.25 347.82 195.40 347.36 205.54 347.68 C 208.39 349.50 211.84 348.83 215.04 348.90 C 230.00 348.90 244.97 348.91 259.94 348.89 C 268.00 348.37 275.94 350.74 284.01 349.73 C 293.27 348.46 302.63 349.03 311.95 348.88 C 319.86 349.10 328.13 348.03 335.67 351.01 C 333.85 351.66 331.95 352.11 330.01 352.08 C 280.35 352.05 230.69 351.89 181.03 352.07 C 178.19 352.00 175.34 352.29 172.65 353.23 C 168.48 351.71 165.08 347.65 165.24 343.07 C 164.92 306.97 165.25 270.86 165.08 234.75 C 165.36 220.50 165.17 206.23 165.31 191.98 C 165.03 185.83 170.93 180.18 177.05 180.61 Z" fill="#251b57" opacity="1.00" stroke="#251b57" stroke-width="0.25"/>
<path d="M 322.37 183.40 C 328.48 181.96 334.77 183.17 340.96 183.04 C 355.89 182.89 370.82 183.18 385.74 183.26 C 384.75 193.74 388.97 205.15 397.90 211.14 C 393.07 213.65 387.63 210.95 382.48 211.69 C 381.27 206.10 377.63 200.99 372.29 198.72 C 364.73 195.52 355.50 199.59 351.60 206.54 C 349.38 206.83 347.19 207.25 345.05 207.91 C 338.94 198.52 330.13 191.35 322.37 183.40 Z" fill="#bec8d2" opacity="1.00" stroke="#bec8d2" stroke-width="0.25"/>
<path d="M 431.34 194.51 C 433.12 190.60 432.73 185.67 436.21 182.65 C 437.18 186.10 436.81 189.69 436.18 193.17 L 436.07 193.53 C 434.78 195.46 433.14 197.29 430.83 197.97 C 430.15 196.78 431.01 195.63 431.34 194.51 Z" fill="#090944" opacity="1.00" stroke="#090944" stroke-width="0.25"/>
<path d="M 305.63 184.03 C 309.78 184.79 313.50 188.43 317.86 187.19 C 325.95 194.46 333.18 202.63 340.99 210.20 C 339.89 213.98 339.04 217.90 339.60 221.86 C 337.29 219.20 334.74 216.77 332.25 214.29 C 323.26 204.31 314.10 194.46 305.63 184.03 Z" fill="#bbc8ca" opacity="1.00" stroke="#bbc8ca" stroke-width="0.25"/>
<path d="M 171.81 189.06 C 172.52 186.89 174.99 186.41 176.98 186.50 C 213.31 186.43 249.64 186.36 285.97 186.41 C 290.42 186.50 294.91 186.07 299.34 186.60 C 302.55 188.73 304.59 192.12 307.14 194.94 C 315.36 204.38 323.77 213.67 332.47 222.67 C 334.93 225.15 337.48 227.55 340.12 229.83 C 334.57 233.25 329.68 239.14 330.20 246.02 C 330.34 252.61 335.24 257.78 340.33 261.35 C 340.55 288.21 340.38 315.08 340.50 341.95 C 340.91 344.63 338.91 347.37 336.19 347.60 C 292.65 347.58 249.09 347.53 205.54 347.68 C 195.40 347.36 185.25 347.82 175.12 347.49 C 172.21 347.56 171.06 344.43 171.34 341.99 C 171.17 293.00 171.52 244.02 171.52 195.04 C 171.53 193.05 171.48 191.03 171.81 189.06 Z" fill="#ffffff" opacity="1.00" stroke="#ffffff" stroke-width="0.25"/>
<path d="M 437.84 186.02 C 440.89 187.12 444.04 188.23 446.55 190.37 C 449.34 192.58 451.29 195.79 454.46 197.53 C 456.07 197.89 457.73 197.54 459.36 197.48 C 457.28 200.25 454.65 203.06 451.08 203.65 C 447.70 204.07 444.71 202.08 441.68 200.94 C 441.88 200.62 442.29 200.00 442.49 199.68 C 439.62 198.48 438.03 195.77 436.07 193.53 L 436.18 193.17 C 436.94 190.84 437.62 188.47 437.84 186.02 Z" fill="#e57c77" opacity="1.00" stroke="#e57c77" stroke-width="0.25"/>
<path d="M 418.59 192.53 C 419.47 193.87 420.41 195.18 421.46 196.41 C 421.89 196.85 422.77 197.73 423.20 198.17 C 422.43 198.89 421.66 199.61 420.89 200.33 C 426.18 205.38 435.04 206.81 441.67 203.70 C 443.71 207.20 444.95 211.87 442.39 215.46 C 437.76 222.13 428.27 223.48 421.00 220.95 C 415.93 219.22 413.13 213.98 412.03 209.05 C 411.11 205.57 414.27 203.03 416.01 200.43 C 415.48 200.16 414.42 199.62 413.89 199.35 C 414.25 199.14 414.96 198.73 415.31 198.53 C 415.92 196.28 416.91 194.18 418.59 192.53 Z" fill="#f5b34a" opacity="1.00" stroke="#f5b34a" stroke-width="0.25"/>
<path d="M 436.07 193.53 C 438.03 195.77 439.62 198.48 442.49 199.68 C 442.29 200.00 441.88 200.62 441.68 200.94 C 441.55 201.85 441.55 202.78 441.67 203.70 C 435.04 206.81 426.18 205.38 420.89 200.33 C 421.66 199.61 422.43 198.89 423.20 198.17 C 425.74 198.39 428.32 198.53 430.83 197.97 C 433.14 197.29 434.78 195.46 436.07 193.53 Z" fill="#e48c63" opacity="1.00" stroke="#e48c63" stroke-width="0.25"/>
<path d="M 356.40 207.97 C 359.61 203.01 367.21 201.50 371.91 205.19 C 374.09 206.87 376.22 209.13 376.69 211.95 C 376.47 214.23 375.38 216.35 375.46 218.69 C 378.83 217.58 382.37 215.70 385.98 216.95 C 390.42 218.17 393.72 221.80 395.45 225.96 C 394.20 227.37 393.08 228.89 392.06 230.47 C 390.61 231.49 389.14 232.49 387.68 233.49 C 384.98 231.50 382.58 229.17 380.21 226.82 C 378.88 225.26 376.80 226.62 375.15 226.72 C 374.42 226.18 373.69 225.64 372.98 225.11 C 371.55 226.53 370.80 228.34 371.47 230.34 C 367.38 229.67 362.85 230.69 360.68 234.53 C 359.16 238.89 361.47 243.57 364.98 246.24 C 365.49 246.66 366.01 247.09 366.54 247.51 C 365.74 247.91 364.96 248.33 364.18 248.76 C 359.30 252.82 353.64 256.84 346.98 256.70 C 340.52 256.76 334.86 250.49 335.53 244.07 C 335.88 238.99 339.83 233.93 344.99 233.16 C 348.24 232.50 350.88 234.79 353.70 235.97 C 354.03 234.64 355.34 233.13 354.36 231.78 C 351.33 229.37 347.27 228.26 344.95 224.99 C 342.69 220.33 344.85 213.62 350.09 212.18 C 352.76 212.53 355.15 214.51 358.06 213.85 C 357.35 211.95 355.97 210.09 356.40 207.97 Z" fill="#f8929d" opacity="1.00" stroke="#f8929d" stroke-width="0.25"/>
<path d="M 243.99 218.00 C 258.73 212.65 276.60 218.42 285.23 231.57 C 290.61 239.21 291.78 248.99 290.91 258.09 C 290.25 268.55 287.19 278.85 282.13 288.03 L 281.97 288.01 C 280.10 287.78 278.26 287.35 276.45 286.86 C 283.93 274.44 286.97 259.47 285.26 245.11 C 282.68 232.29 270.87 222.32 257.89 221.44 C 244.84 219.96 232.16 228.90 227.61 240.91 C 225.18 246.90 225.28 253.52 225.83 259.85 C 226.88 270.12 230.69 280.04 236.36 288.63 C 234.59 289.23 232.87 289.99 231.23 290.89 C 222.88 277.67 218.67 261.68 220.68 246.07 C 222.73 233.47 231.92 222.27 243.99 218.00 Z" fill="#251b58" opacity="1.00" stroke="#251b58" stroke-width="0.25"/>
<path d="M 401.40 223.28 C 403.03 221.39 404.99 219.79 407.03 218.37 C 410.19 221.09 412.96 224.27 416.51 226.52 C 425.39 232.38 432.76 240.11 440.89 246.90 C 441.32 247.32 442.18 248.16 442.61 248.58 C 435.62 253.12 428.85 258.36 420.77 260.85 C 416.22 262.27 411.39 261.87 406.71 261.59 C 404.44 259.76 402.05 257.77 401.24 254.85 C 399.90 250.53 397.19 246.87 394.55 243.27 C 397.70 240.54 400.22 237.02 401.37 232.98 C 402.14 229.79 401.18 226.51 401.40 223.28 Z" fill="#96d8bb" opacity="1.00" stroke="#96d8bb" stroke-width="0.25"/>
<path d="M 227.61 240.91 C 232.16 228.90 244.84 219.96 257.89 221.44 C 270.87 222.32 282.68 232.29 285.26 245.11 C 286.97 259.47 283.93 274.44 276.45 286.86 C 272.12 293.19 267.09 299.74 259.80 302.77 C 255.14 304.82 250.10 302.39 246.43 299.48 C 242.46 296.49 239.16 292.71 236.36 288.63 C 230.69 280.04 226.88 270.12 225.83 259.85 C 225.28 253.52 225.18 246.90 227.61 240.91 Z" fill="#fffffe" opacity="1.00" stroke="#fffffe" stroke-width="0.25"/>
<path d="M 372.98 225.11 C 373.69 225.64 374.42 226.18 375.15 226.72 C 376.80 226.62 378.88 225.26 380.21 226.82 C 382.58 229.17 384.98 231.50 387.68 233.49 C 389.14 232.49 390.61 231.49 392.06 230.47 C 393.08 228.89 394.20 227.37 395.45 225.96 C 395.77 228.68 396.05 231.80 394.05 234.00 C 391.62 237.46 387.45 238.79 383.54 239.78 C 383.50 240.60 383.48 241.43 383.48 242.25 C 388.62 244.84 393.94 248.48 395.45 254.40 C 396.77 259.79 392.00 264.43 387.34 266.15 C 379.54 268.98 370.74 262.80 369.08 255.07 C 368.41 252.47 367.70 248.54 364.18 248.76 C 364.96 248.33 365.74 247.91 366.54 247.51 C 366.01 247.09 365.49 246.66 364.98 246.24 C 370.03 247.24 376.03 243.47 375.71 237.97 C 376.06 234.73 373.65 232.34 371.47 230.34 C 370.80 228.34 371.55 226.53 372.98 225.11 Z" fill="#f48493" opacity="1.00" stroke="#f48493" stroke-width="0.25"/>
<path d="M 360.68 234.53 C 362.85 230.69 367.38 229.67 371.47 230.34 C 373.65 232.34 376.06 234.73 375.71 237.97 C 376.03 243.47 370.03 247.24 364.98 246.24 C 361.47 243.57 359.16 238.89 360.68 234.53 Z" fill="#620b9f" opacity="1.00" stroke="#620b9f" stroke-width="0.25"/>
<path d="M 146.21 263.30 C 150.59 252.75 156.28 242.27 165.08 234.75 C 165.25 270.86 164.92 306.97 165.24 343.07 C 165.08 347.65 168.48 351.71 172.65 353.23 C 175.42 353.55 178.21 353.55 180.99 353.58 C 215.15 353.62 249.32 353.36 283.47 353.62 C 282.07 354.27 280.65 355.05 279.05 354.92 C 270.74 354.95 262.43 354.74 254.13 355.18 C 254.10 355.77 254.04 356.97 254.01 357.56 C 254.92 357.47 255.83 357.39 256.75 357.31 C 257.50 359.80 258.07 362.36 257.98 364.98 C 257.78 374.60 258.17 384.25 257.39 393.85 C 257.29 396.02 254.46 395.80 253.02 396.62 C 257.76 397.31 262.57 396.65 267.31 397.42 C 256.68 398.99 245.92 397.80 235.32 396.57 C 220.25 394.37 205.30 390.34 191.73 383.32 C 182.37 378.74 173.84 372.69 165.34 366.71 C 163.93 365.61 162.18 365.19 160.48 364.77 C 155.70 355.16 151.04 345.34 148.25 334.95 C 153.42 324.21 153.69 311.64 151.23 300.15 C 149.69 292.73 145.95 286.08 141.92 279.77 C 143.59 274.34 143.86 268.53 146.21 263.30 Z" fill="#d7dfe4" opacity="1.00" stroke="#d7dfe4" stroke-width="0.25"/>
<path d="M 440.89 246.90 C 441.16 246.69 441.68 246.26 441.94 246.04 C 445.40 247.37 448.97 248.41 452.29 250.07 C 450.77 252.10 447.97 252.35 446.25 254.17 C 440.45 259.72 433.67 264.23 426.27 267.34 C 424.97 267.76 423.60 268.36 422.23 268.07 C 421.24 267.90 420.26 267.71 419.29 267.52 C 418.73 267.88 418.18 268.23 417.64 268.60 C 414.12 267.52 410.41 267.65 406.84 266.93 C 404.56 265.82 401.75 264.93 400.85 262.30 C 402.14 262.47 403.44 262.67 404.74 262.79 C 405.23 262.49 406.21 261.89 406.71 261.59 C 411.39 261.87 416.22 262.27 420.77 260.85 C 428.85 258.36 435.62 253.12 442.61 248.58 C 442.18 248.16 441.32 247.32 440.89 246.90 Z" fill="#181549" opacity="1.00" stroke="#181549" stroke-width="0.25"/>
<path d="M 79.83 273.02 C 79.91 264.99 80.45 256.23 85.09 249.40 C 88.20 249.65 91.46 249.69 94.23 251.31 C 96.09 252.33 97.97 253.47 100.14 253.59 L 101.26 253.78 C 112.37 260.93 122.44 270.28 128.96 281.87 C 130.63 278.46 132.07 274.79 134.91 272.14 C 137.76 274.15 140.07 276.82 141.92 279.77 C 145.95 286.08 149.69 292.73 151.23 300.15 C 153.69 311.64 153.42 324.21 148.25 334.95 C 151.04 345.34 155.70 355.16 160.48 364.77 C 161.89 369.05 165.40 373.43 163.36 378.07 C 158.56 379.48 156.23 374.80 154.07 371.53 C 153.75 371.43 153.12 371.23 152.81 371.12 C 148.83 370.01 144.61 371.29 140.63 370.11 C 135.02 368.47 130.38 364.66 125.98 360.97 C 117.72 353.51 110.68 344.62 105.01 335.07 C 103.59 332.28 102.47 329.18 100.06 327.06 C 98.46 325.69 96.69 324.53 95.01 323.27 C 93.25 319.86 91.54 316.41 89.76 313.01 L 89.50 312.50 C 88.06 312.26 86.62 312.02 85.18 311.79 C 85.86 311.17 86.55 310.56 87.25 309.95 C 84.82 297.64 79.75 285.74 79.83 273.02 Z" fill="#211a4f" opacity="1.00" stroke="#211a4f" stroke-width="0.25"/>
<path d="M 245.73 254.81 C 249.81 251.90 255.34 250.87 260.11 252.62 C 258.50 252.82 256.91 253.07 255.32 253.32 C 256.42 258.73 255.38 264.44 257.31 269.69 C 258.57 272.54 256.00 275.13 255.93 277.97 C 255.73 282.32 256.70 286.92 259.41 290.43 L 259.70 290.85 C 257.40 291.90 254.51 292.52 252.39 290.74 C 249.19 288.69 248.47 284.31 250.15 281.05 C 250.49 279.43 252.42 277.63 251.05 276.06 C 248.89 273.22 245.80 271.09 244.27 267.79 C 242.12 263.75 242.10 258.00 245.73 254.81 Z" fill="#d4dbe0" opacity="1.00" stroke="#d4dbe0" stroke-width="0.25"/>
<path d="M 255.32 253.32 C 256.91 253.07 258.50 252.82 260.11 252.62 C 263.45 253.06 265.89 255.69 267.88 258.20 C 270.32 261.21 269.55 265.61 267.69 268.72 C 266.01 271.67 262.87 273.21 260.33 275.27 C 258.88 279.03 262.71 282.34 262.28 286.08 C 261.95 287.88 260.54 289.12 259.41 290.43 C 256.70 286.92 255.73 282.32 255.93 277.97 C 256.00 275.13 258.57 272.54 257.31 269.69 C 255.38 264.44 256.42 258.73 255.32 253.32 Z" fill="#cbd2d9" opacity="1.00" stroke="#cbd2d9" stroke-width="0.25"/>
<path d="M 352.26 262.03 C 356.59 261.33 360.32 258.81 363.75 256.21 C 364.78 261.35 367.69 266.12 372.31 268.76 C 383.06 275.17 395.12 278.85 406.47 284.01 C 406.30 304.41 406.78 324.84 406.36 345.25 C 405.42 326.26 406.37 307.22 405.76 288.22 C 392.38 283.52 379.18 278.17 366.79 271.25 C 364.84 270.06 362.66 269.39 360.41 269.11 C 360.21 285.74 360.56 302.36 360.42 318.99 C 360.39 325.46 357.77 331.48 355.30 337.33 C 352.78 343.20 349.58 348.74 346.18 354.13 C 344.63 353.63 343.07 353.13 341.52 352.65 C 343.94 350.34 346.77 347.66 346.64 344.02 C 346.71 316.91 346.63 289.79 346.81 262.67 C 348.62 262.50 350.46 262.35 352.26 262.03 Z" fill="#bcc5d2" opacity="1.00" stroke="#bcc5d2" stroke-width="0.25"/>
<path d="M 90.04 292.72 C 86.53 281.08 85.49 268.24 88.81 256.43 C 92.99 257.14 96.58 259.48 99.96 261.88 C 96.31 265.62 97.95 271.23 96.73 275.85 C 96.08 282.01 93.57 287.69 90.04 292.72 Z" fill="#c0e2c6" opacity="1.00" stroke="#c0e2c6" stroke-width="0.25"/>
<path d="M 340.33 261.35 C 340.82 261.71 341.32 262.08 341.83 262.45 C 345.27 261.86 348.78 261.68 352.26 262.03 C 350.46 262.35 348.62 262.50 346.81 262.67 C 346.63 289.79 346.71 316.91 346.64 344.02 C 346.77 347.66 343.94 350.34 341.52 352.65 C 336.73 354.51 331.49 353.20 326.51 353.73 C 321.16 353.56 315.82 353.54 310.48 353.63 C 301.48 353.58 292.47 353.41 283.47 353.62 C 249.32 353.36 215.15 353.62 180.99 353.58 C 178.21 353.55 175.42 353.55 172.65 353.23 C 175.34 352.29 178.19 352.00 181.03 352.07 C 230.69 351.89 280.35 352.05 330.01 352.08 C 331.95 352.11 333.85 351.66 335.67 351.01 C 328.13 348.03 319.86 349.10 311.95 348.88 C 302.63 349.03 293.27 348.46 284.01 349.73 C 275.94 350.74 268.00 348.37 259.94 348.89 C 244.97 348.91 230.00 348.90 215.04 348.90 C 211.84 348.83 208.39 349.50 205.54 347.68 C 249.09 347.53 292.65 347.58 336.19 347.60 C 338.91 347.37 340.91 344.63 340.50 341.95 C 340.38 315.08 340.55 288.21 340.33 261.35 Z" fill="#1e134c" opacity="1.00" stroke="#1e134c" stroke-width="0.25"/>
<path d="M 99.96 261.88 C 102.07 263.37 104.15 264.90 106.21 266.45 C 104.53 271.11 104.69 276.17 104.14 281.04 C 104.16 287.71 102.72 294.30 103.10 300.98 C 103.03 306.24 103.65 311.86 101.00 316.66 C 96.40 309.20 92.01 301.31 90.04 292.72 C 93.57 287.69 96.08 282.01 96.73 275.85 C 97.95 271.23 96.31 265.62 99.96 261.88 Z" fill="#b1dabb" opacity="1.00" stroke="#b1dabb" stroke-width="0.25"/>
<path d="M 106.21 266.45 C 109.91 269.46 113.22 272.93 116.22 276.63 C 116.00 277.21 115.54 278.38 115.32 278.97 C 117.79 283.34 117.60 288.44 118.23 293.27 C 119.55 304.50 116.81 315.61 115.56 326.70 C 115.46 329.17 112.76 330.00 111.08 331.26 C 107.75 326.37 104.13 321.68 101.00 316.66 C 103.65 311.86 103.03 306.24 103.10 300.98 C 102.72 294.30 104.16 287.71 104.14 281.04 C 104.69 276.17 104.53 271.11 106.21 266.45 Z" fill="#a0cda8" opacity="1.00" stroke="#a0cda8" stroke-width="0.25"/>
<path d="M 406.84 266.93 C 410.41 267.65 414.12 267.52 417.64 268.60 C 417.49 270.92 417.36 273.24 417.25 275.57 C 416.29 278.29 416.27 282.16 413.05 283.28 C 410.88 283.63 408.69 283.22 406.53 283.06 C 407.03 277.70 406.79 272.31 406.84 266.93 Z" fill="#182898" opacity="1.00" stroke="#182898" stroke-width="0.25"/>
<path d="M 419.29 267.52 C 420.26 267.71 421.24 267.90 422.23 268.07 C 422.08 294.72 422.32 321.37 422.25 348.02 C 422.26 354.56 421.99 361.10 421.58 367.62 L 421.07 367.84 C 420.66 368.01 419.85 368.36 419.45 368.53 C 419.03 369.26 418.62 370.00 418.24 370.76 C 418.00 369.40 417.77 368.04 417.56 366.69 C 417.98 342.80 417.71 318.90 417.73 295.01 C 417.75 288.53 417.56 282.04 417.25 275.57 C 417.36 273.24 417.49 270.92 417.64 268.60 C 418.18 268.23 418.73 267.88 419.29 267.52 Z" fill="#1f1341" opacity="1.00" stroke="#1f1341" stroke-width="0.25"/>
<path d="M 360.41 269.11 C 362.66 269.39 364.84 270.06 366.79 271.25 C 379.18 278.17 392.38 283.52 405.76 288.22 C 406.37 307.22 405.42 326.26 406.36 345.25 C 406.36 351.17 406.60 357.09 406.37 363.01 C 405.95 371.81 400.72 379.61 394.26 385.26 C 388.22 389.54 381.48 392.66 374.83 395.85 C 341.77 411.26 309.07 427.46 276.03 442.93 C 272.02 444.59 268.09 446.52 263.85 447.60 C 257.67 449.27 251.15 449.03 244.86 448.18 C 237.16 446.39 230.04 442.90 223.02 439.38 C 202.89 429.02 182.41 419.39 162.10 409.41 C 148.33 402.63 134.28 396.42 120.61 389.42 C 118.54 388.26 116.51 387.02 114.55 385.70 C 109.01 381.56 105.59 375.24 104.07 368.58 C 103.99 368.30 103.83 367.74 103.75 367.46 C 103.67 361.69 103.23 355.77 104.96 350.17 C 105.27 349.80 105.88 349.06 106.19 348.69 C 107.99 350.57 110.41 351.37 112.83 352.10 C 116.13 355.16 118.37 359.22 121.80 362.19 C 126.97 366.72 132.08 371.59 138.34 374.56 C 143.27 375.20 148.99 374.66 152.81 371.12 C 153.12 371.23 153.75 371.43 154.07 371.53 C 153.80 373.52 152.89 375.59 153.40 377.60 C 155.80 380.72 159.99 383.32 164.01 381.80 C 165.06 380.61 163.58 379.29 163.36 378.07 C 165.40 373.43 161.89 369.05 160.48 364.77 C 162.18 365.19 163.93 365.61 165.34 366.71 C 173.84 372.69 182.37 378.74 191.73 383.32 C 205.30 390.34 220.25 394.37 235.32 396.57 C 245.92 397.80 256.68 398.99 267.31 397.42 C 276.03 396.87 284.69 395.31 293.01 392.63 C 301.00 390.15 308.85 387.02 315.96 382.56 C 327.75 375.26 338.86 366.07 346.18 354.13 C 349.58 348.74 352.78 343.20 355.30 337.33 C 357.77 331.48 360.39 325.46 360.42 318.99 C 360.56 302.36 360.21 285.74 360.41 269.11 Z" fill="#ffffff" opacity="1.00" stroke="#ffffff" stroke-width="0.25"/>
<path d="M 413.05 283.28 C 416.27 282.16 416.29 278.29 417.25 275.57 C 417.56 282.04 417.75 288.53 417.73 295.01 C 417.71 318.90 417.98 342.80 417.56 366.69 C 415.75 373.25 412.99 379.67 408.47 384.84 C 407.69 383.02 405.43 383.91 404.08 382.94 C 403.13 382.08 402.34 381.08 401.50 380.13 C 399.16 381.86 397.57 385.54 394.26 385.26 C 400.72 379.61 405.95 371.81 406.37 363.01 C 406.60 357.09 406.36 351.17 406.36 345.25 C 406.78 324.84 406.30 304.41 406.47 284.01 C 406.48 283.77 406.52 283.30 406.53 283.06 C 408.69 283.22 410.88 283.63 413.05 283.28 Z" fill="#2739cb" opacity="1.00" stroke="#2739cb" stroke-width="0.25"/>
<path d="M 116.22 276.63 C 121.86 283.69 125.89 291.92 128.50 300.56 C 126.62 303.44 127.02 306.96 126.74 310.23 C 126.50 313.92 125.50 317.53 125.53 321.24 C 126.15 328.76 122.57 335.83 119.11 342.26 C 116.33 338.67 113.53 335.08 111.08 331.26 C 112.76 330.00 115.46 329.17 115.56 326.70 C 116.81 315.61 119.55 304.50 118.23 293.27 C 117.60 288.44 117.79 283.34 115.32 278.97 C 115.54 278.38 116.00 277.21 116.22 276.63 Z" fill="#93c39d" opacity="1.00" stroke="#93c39d" stroke-width="0.25"/>
<path d="M 131.70 288.00 C 131.02 285.59 133.24 283.67 134.97 282.42 C 136.45 282.44 137.09 284.03 137.96 284.98 C 141.56 290.04 143.78 295.97 145.08 302.01 C 146.69 309.93 145.51 318.01 145.26 326.00 C 142.99 321.49 142.22 316.39 140.44 311.69 C 137.92 303.64 133.85 296.16 131.70 288.00 Z" fill="#61a77d" opacity="1.00" stroke="#61a77d" stroke-width="0.25"/>
<path d="M 259.80 302.77 C 267.09 299.74 272.12 293.19 276.45 286.86 C 278.26 287.35 280.10 287.78 281.97 288.01 C 277.01 296.59 270.15 305.02 260.46 308.30 C 254.60 310.04 248.57 307.70 243.90 304.19 C 238.84 300.65 234.63 296.02 231.23 290.89 C 232.87 289.99 234.59 289.23 236.36 288.63 C 239.16 292.71 242.46 296.49 246.43 299.48 C 250.10 302.39 255.14 304.82 259.80 302.77 Z" fill="#221455" opacity="1.00" stroke="#221455" stroke-width="0.25"/>
<path d="M 126.74 310.23 C 127.02 306.96 126.62 303.44 128.50 300.56 C 130.74 306.42 132.72 312.39 134.60 318.38 C 131.51 321.07 133.78 324.96 134.93 328.00 C 135.65 332.52 133.04 336.62 131.59 340.74 C 130.75 343.39 129.96 346.07 128.77 348.59 C 127.42 348.66 126.07 348.74 124.72 348.77 C 122.48 346.96 120.86 344.51 119.11 342.26 C 122.57 335.83 126.15 328.76 125.53 321.24 C 125.50 317.53 126.50 313.92 126.74 310.23 Z" fill="#87bb93" opacity="1.00" stroke="#87bb93" stroke-width="0.25"/>
<path d="M 79.48 313.65 C 82.86 312.99 86.32 312.94 89.76 313.01 C 91.54 316.41 93.25 319.86 95.01 323.27 C 94.54 323.26 93.60 323.25 93.13 323.24 C 92.88 323.70 92.36 324.62 92.11 325.07 C 89.32 325.33 86.53 325.71 83.82 326.43 C 83.51 326.05 82.89 325.29 82.58 324.90 C 81.38 323.37 79.98 322.01 78.50 320.75 C 77.23 319.69 75.94 318.56 74.23 318.29 C 75.81 316.61 77.20 314.43 79.48 313.65 Z" fill="#9dd6ce" opacity="1.00" stroke="#9dd6ce" stroke-width="0.25"/>
<path d="M 134.93 328.00 C 133.78 324.96 131.51 321.07 134.60 318.38 C 137.34 326.10 140.09 333.86 141.98 341.83 C 140.49 347.53 140.26 354.70 134.97 358.36 C 131.22 355.55 127.68 352.41 124.72 348.77 C 126.07 348.74 127.42 348.66 128.77 348.59 C 129.96 346.07 130.75 343.39 131.59 340.74 C 133.04 336.62 135.65 332.52 134.93 328.00 Z" fill="#7bb38a" opacity="1.00" stroke="#7bb38a" stroke-width="0.25"/>
<path d="M 67.99 323.01 C 70.86 320.51 74.85 319.45 78.50 320.75 C 77.29 323.15 75.99 325.51 74.66 327.84 C 73.20 330.27 72.24 332.95 71.50 335.68 C 69.08 333.08 66.65 330.50 64.28 327.86 C 63.67 325.44 66.57 324.41 67.99 323.01 Z" fill="#ea93b7" opacity="1.00" stroke="#ea93b7" stroke-width="0.25"/>
<path d="M 78.50 320.75 C 79.98 322.01 81.38 323.37 82.58 324.90 C 82.58 326.54 82.52 328.18 82.45 329.83 L 80.64 329.69 C 79.10 329.54 77.57 329.79 76.06 330.05 C 75.71 329.50 75.01 328.39 74.66 327.84 C 75.99 325.51 77.29 323.15 78.50 320.75 Z" fill="#2a235d" opacity="1.00" stroke="#2a235d" stroke-width="0.25"/>
<path d="M 93.13 323.24 C 93.60 323.25 94.54 323.26 95.01 323.27 C 96.69 324.53 98.46 325.69 100.06 327.06 C 100.21 327.44 100.52 328.19 100.68 328.57 C 96.71 328.09 92.66 327.93 88.74 328.85 C 90.05 327.77 91.24 326.54 92.11 325.07 C 92.36 324.62 92.88 323.70 93.13 323.24 Z" fill="#6e256e" opacity="1.00" stroke="#6e256e" stroke-width="0.25"/>
<path d="M 82.58 324.90 C 82.89 325.29 83.51 326.05 83.82 326.43 C 86.53 325.71 89.32 325.33 92.11 325.07 C 91.24 326.54 90.05 327.77 88.74 328.85 C 87.32 329.95 85.98 331.14 84.66 332.35 C 83.92 331.50 83.20 330.65 82.45 329.83 C 82.52 328.18 82.58 326.54 82.58 324.90 Z" fill="#c776a7" opacity="1.00" stroke="#c776a7" stroke-width="0.25"/>
<path d="M 57.94 328.74 C 58.83 327.56 62.38 324.73 62.20 327.86 L 62.22 329.09 C 60.78 329.13 59.35 329.01 57.94 328.74 Z" fill="#57539c" opacity="1.00" stroke="#57539c" stroke-width="0.25"/>
<path d="M 100.06 327.06 C 102.47 329.18 103.59 332.28 105.01 335.07 C 100.92 339.03 106.87 344.04 106.19 348.69 C 105.88 349.06 105.27 349.80 104.96 350.17 C 105.36 347.73 105.31 345.12 103.64 343.14 C 103.23 343.54 102.40 344.33 101.99 344.72 C 102.59 339.30 103.29 333.60 100.68 328.57 C 100.52 328.19 100.21 327.44 100.06 327.06 Z" fill="#898fb0" opacity="1.00" stroke="#898fb0" stroke-width="0.25"/>
<path d="M 62.20 327.86 C 62.72 327.86 63.76 327.86 64.28 327.86 C 66.65 330.50 69.08 333.08 71.50 335.68 C 72.24 332.95 73.20 330.27 74.66 327.84 C 75.01 328.39 75.71 329.50 76.06 330.05 C 71.72 333.00 74.06 340.09 79.04 340.44 C 81.76 339.42 82.68 336.37 83.66 333.93 C 82.66 332.51 81.67 331.08 80.64 329.69 L 82.45 329.83 C 83.20 330.65 83.92 331.50 84.66 332.35 C 84.49 333.76 84.31 335.17 84.14 336.58 C 85.49 335.95 86.82 335.29 88.14 334.62 C 85.93 337.46 83.72 340.31 81.27 342.96 C 83.55 345.96 86.95 348.87 91.01 347.98 C 94.33 347.42 96.22 344.42 97.47 341.58 C 97.69 341.83 98.13 342.31 98.35 342.55 C 98.40 343.30 98.44 344.05 98.46 344.81 C 98.65 344.97 99.02 345.29 99.21 345.46 C 100.06 344.98 100.98 344.75 101.96 344.77 C 100.80 346.98 99.46 349.09 98.03 351.15 C 94.18 351.27 90.32 351.54 86.48 351.14 C 87.73 352.44 88.85 353.87 89.71 355.47 C 90.07 354.80 90.44 354.14 90.82 353.48 C 92.61 353.39 95.41 351.23 96.45 353.59 C 95.56 356.48 93.78 359.02 92.95 361.94 C 93.07 366.37 94.11 370.74 95.48 374.95 C 96.11 376.65 96.81 378.32 97.59 379.96 C 99.35 383.99 102.29 387.29 105.21 390.50 C 106.11 393.05 108.23 394.70 110.40 396.15 C 110.43 397.55 110.46 398.95 110.54 400.35 C 104.59 396.55 99.26 391.52 95.74 385.36 C 92.99 379.18 91.54 372.53 89.74 366.04 C 89.16 363.99 87.98 361.98 86.03 360.99 C 82.99 360.34 80.55 362.64 77.95 363.74 C 74.90 364.20 74.20 360.78 73.15 358.73 C 71.74 357.08 69.28 357.85 67.39 357.60 C 67.60 357.19 68.04 356.38 68.25 355.97 C 65.17 354.45 61.71 353.32 59.31 350.75 C 58.30 346.25 61.32 342.16 64.78 339.66 C 65.46 338.85 66.99 338.32 66.81 337.07 C 65.77 334.15 63.24 332.00 62.22 329.09 L 62.20 327.86 Z" fill="#1e1547" opacity="1.00" stroke="#1e1547" stroke-width="0.25"/>
<path d="M 88.74 328.85 C 92.66 327.93 96.71 328.09 100.68 328.57 C 103.29 333.60 102.59 339.30 101.99 344.72 L 101.96 344.77 C 100.98 344.75 100.06 344.98 99.21 345.46 C 99.02 345.29 98.65 344.97 98.46 344.81 C 98.44 344.05 98.40 343.30 98.35 342.55 C 98.13 342.31 97.69 341.83 97.47 341.58 C 96.45 338.78 95.98 335.43 93.28 333.64 C 91.52 332.75 89.72 333.87 88.14 334.62 C 86.82 335.29 85.49 335.95 84.14 336.58 C 84.31 335.17 84.49 333.76 84.66 332.35 C 85.98 331.14 87.32 329.95 88.74 328.85 Z" fill="#171863" opacity="1.00" stroke="#171863" stroke-width="0.25"/>
<path d="M 76.06 330.05 C 77.57 329.79 79.10 329.54 80.64 329.69 C 81.67 331.08 82.66 332.51 83.66 333.93 C 82.68 336.37 81.76 339.42 79.04 340.44 C 74.06 340.09 71.72 333.00 76.06 330.05 Z" fill="#fd81a5" opacity="1.00" stroke="#fd81a5" stroke-width="0.25"/>
<path d="M 88.14 334.62 C 89.72 333.87 91.52 332.75 93.28 333.64 C 95.98 335.43 96.45 338.78 97.47 341.58 C 96.22 344.42 94.33 347.42 91.01 347.98 C 86.95 348.87 83.55 345.96 81.27 342.96 C 83.72 340.31 85.93 337.46 88.14 334.62 Z" fill="#ec778f" opacity="1.00" stroke="#ec778f" stroke-width="0.25"/>
<path d="M 106.19 348.69 C 106.87 344.04 100.92 339.03 105.01 335.07 C 110.68 344.62 117.72 353.51 125.98 360.97 C 130.38 364.66 135.02 368.47 140.63 370.11 C 144.61 371.29 148.83 370.01 152.81 371.12 C 148.99 374.66 143.27 375.20 138.34 374.56 C 132.08 371.59 126.97 366.72 121.80 362.19 C 118.37 359.22 116.13 355.16 112.83 352.10 C 110.41 351.37 107.99 350.57 106.19 348.69 Z" fill="#d7dce2" opacity="1.00" stroke="#d7dce2" stroke-width="0.25"/>
<path d="M 62.60 346.09 C 62.76 342.72 65.94 340.45 68.96 339.63 C 72.67 340.90 76.32 342.61 80.33 342.50 C 81.28 345.00 82.43 347.42 83.25 349.97 C 83.07 352.35 82.69 354.76 81.86 357.01 C 80.85 359.56 76.76 357.95 76.49 355.63 C 75.28 352.23 77.18 348.94 77.32 345.59 C 74.09 346.65 73.77 351.75 70.01 351.71 C 66.94 351.08 63.40 349.41 62.60 346.09 Z" fill="#f88497" opacity="1.00" stroke="#f88497" stroke-width="0.25"/>
<path d="M 141.98 341.83 C 145.14 348.68 147.43 355.92 149.43 363.18 C 144.22 363.15 139.11 361.55 134.97 358.36 C 140.26 354.70 140.49 347.53 141.98 341.83 Z" fill="#68a780" opacity="1.00" stroke="#68a780" stroke-width="0.25"/>
<path d="M 103.64 343.14 C 105.31 345.12 105.36 347.73 104.96 350.17 C 103.23 355.77 103.67 361.69 103.75 367.46 C 101.09 362.80 102.98 357.28 101.69 352.30 C 100.93 350.86 99.18 351.47 97.89 351.36 L 98.03 351.15 C 99.46 349.09 100.80 346.98 101.96 344.77 L 101.99 344.72 C 102.40 344.33 103.23 343.54 103.64 343.14 Z" fill="#859ddd" opacity="1.00" stroke="#859ddd" stroke-width="0.25"/>
<path d="M 86.48 351.14 C 90.32 351.54 94.18 351.27 98.03 351.15 L 97.89 351.36 C 97.48 352.14 96.99 352.88 96.45 353.59 C 95.41 351.23 92.61 353.39 90.82 353.48 C 90.44 354.14 90.07 354.80 89.71 355.47 C 88.85 353.87 87.73 352.44 86.48 351.14 Z" fill="#f08997" opacity="1.00" stroke="#f08997" stroke-width="0.25"/>
<path d="M 97.89 351.36 C 99.18 351.47 100.93 350.86 101.69 352.30 C 102.98 357.28 101.09 362.80 103.75 367.46 C 103.83 367.74 103.99 368.30 104.07 368.58 C 103.46 370.19 102.84 371.80 102.21 373.40 C 99.97 373.93 97.73 374.44 95.48 374.95 C 94.11 370.74 93.07 366.37 92.95 361.94 C 93.78 359.02 95.56 356.48 96.45 353.59 C 96.99 352.88 97.48 352.14 97.89 351.36 Z" fill="#6b98f5" opacity="1.00" stroke="#6b98f5" stroke-width="0.25"/>
<path d="M 72.05 356.01 C 69.98 355.08 72.51 352.02 74.34 352.56 C 74.63 353.84 74.14 357.61 72.05 356.01 Z" fill="#6d4f7f" opacity="1.00" stroke="#6d4f7f" stroke-width="0.25"/>
<path d="M 326.51 353.73 C 331.49 353.20 336.73 354.51 341.52 352.65 C 343.07 353.13 344.63 353.63 346.18 354.13 C 338.86 366.07 327.75 375.26 315.96 382.56 C 315.19 381.09 314.08 379.69 314.06 377.97 C 313.56 370.37 314.78 362.66 313.24 355.13 C 317.65 354.66 322.46 356.02 326.51 353.73 Z" fill="#c1c9d3" opacity="1.00" stroke="#c1c9d3" stroke-width="0.25"/>
<path d="M 283.47 353.62 C 292.47 353.41 301.48 353.58 310.48 353.63 C 308.38 355.45 305.50 354.90 302.97 354.98 C 298.44 354.80 293.87 354.99 289.48 356.21 C 288.89 360.49 288.58 364.86 289.35 369.14 C 290.31 365.07 290.50 360.87 291.40 356.79 C 294.17 357.92 294.92 361.27 294.97 363.95 C 294.83 368.15 295.49 372.31 296.04 376.46 C 295.59 376.47 294.68 376.49 294.23 376.50 C 294.07 380.12 293.49 383.70 292.52 387.20 C 293.04 388.15 293.54 389.11 294.04 390.08 C 292.37 390.28 291.43 391.27 293.01 392.63 C 284.69 395.31 276.03 396.87 267.31 397.42 C 262.57 396.65 257.76 397.31 253.02 396.62 C 254.46 395.80 257.29 396.02 257.39 393.85 C 258.17 384.25 257.78 374.60 257.98 364.98 C 258.07 362.36 257.50 359.80 256.75 357.31 C 255.83 357.39 254.92 357.47 254.01 357.56 C 254.04 356.97 254.10 355.77 254.13 355.18 C 262.43 354.74 270.74 354.95 279.05 354.92 C 280.65 355.05 282.07 354.27 283.47 353.62 Z" fill="#cdd5dc" opacity="1.00" stroke="#cdd5dc" stroke-width="0.25"/>
<path d="M 310.48 353.63 C 315.82 353.54 321.16 353.56 326.51 353.73 C 322.46 356.02 317.65 354.66 313.24 355.13 C 314.78 362.66 313.56 370.37 314.06 377.97 C 314.08 379.69 315.19 381.09 315.96 382.56 C 308.85 387.02 301.00 390.15 293.01 392.63 C 291.43 391.27 292.37 390.28 294.04 390.08 C 293.54 389.11 293.04 388.15 292.52 387.20 C 293.49 383.70 294.07 380.12 294.23 376.50 C 294.68 376.49 295.59 376.47 296.04 376.46 C 295.49 372.31 294.83 368.15 294.97 363.95 C 294.92 361.27 294.17 357.92 291.40 356.79 C 290.50 360.87 290.31 365.07 289.35 369.14 C 288.58 364.86 288.89 360.49 289.48 356.21 C 293.87 354.99 298.44 354.80 302.97 354.98 C 305.50 354.90 308.38 355.45 310.48 353.63 Z" fill="#c6cfd7" opacity="1.00" stroke="#c6cfd7" stroke-width="0.25"/>
<path d="M 408.47 384.84 C 412.99 379.67 415.75 373.25 417.56 366.69 C 417.77 368.04 418.00 369.40 418.24 370.76 C 418.62 370.00 419.03 369.26 419.45 368.53 C 419.85 368.36 420.66 368.01 421.07 367.84 C 421.35 373.06 418.67 377.79 416.36 382.28 C 412.07 390.36 404.98 396.63 397.01 400.94 C 388.79 406.18 379.57 409.45 370.99 414.00 C 362.48 417.63 354.28 421.91 346.02 426.04 C 323.17 435.86 301.07 447.33 278.31 457.33 C 265.04 463.43 249.58 465.32 235.61 460.47 C 223.63 457.07 213.06 450.37 201.79 445.32 C 184.74 436.92 167.71 428.49 150.41 420.63 C 137.24 413.64 123.03 408.59 110.54 400.35 C 110.46 398.95 110.43 397.55 110.40 396.15 C 108.23 394.70 106.11 393.05 105.21 390.50 C 107.98 392.56 110.76 394.64 113.79 396.30 C 125.71 402.65 137.96 408.39 150.05 414.41 C 174.89 426.14 199.49 438.38 224.09 450.62 C 230.57 453.95 237.46 456.55 244.67 457.77 C 256.82 460.48 269.25 456.54 280.14 451.24 C 292.84 445.95 304.83 439.14 317.47 433.70 C 340.18 423.53 362.42 412.36 384.86 401.61 C 393.76 397.71 402.33 392.54 408.47 384.84 Z" fill="#1c124b" opacity="1.00" stroke="#1c124b" stroke-width="0.25"/>
<path d="M 102.21 373.40 C 102.84 371.80 103.46 370.19 104.07 368.58 C 105.59 375.24 109.01 381.56 114.55 385.70 C 113.24 386.12 111.83 387.46 110.40 386.59 C 105.80 384.97 102.62 380.41 97.59 379.96 C 96.81 378.32 96.11 376.65 95.48 374.95 C 97.73 374.44 99.97 373.93 102.21 373.40 Z" fill="#6289f2" opacity="1.00" stroke="#6289f2" stroke-width="0.25"/>
<path d="M 154.07 371.53 C 156.23 374.80 158.56 379.48 163.36 378.07 C 163.58 379.29 165.06 380.61 164.01 381.80 C 159.99 383.32 155.80 380.72 153.40 377.60 C 152.89 375.59 153.80 373.52 154.07 371.53 Z" fill="#d7d6db" opacity="1.00" stroke="#d7d6db" stroke-width="0.25"/>
<path d="M 97.59 379.96 C 102.62 380.41 105.80 384.97 110.40 386.59 C 111.83 387.46 113.24 386.12 114.55 385.70 C 116.51 387.02 118.54 388.26 120.61 389.42 C 120.95 390.54 121.24 391.68 121.50 392.83 C 120.71 393.53 119.93 394.24 119.14 394.94 C 117.24 394.11 115.25 393.51 113.23 393.07 C 114.20 393.98 115.18 394.90 116.17 395.81 C 115.57 395.93 114.38 396.18 113.79 396.30 C 110.76 394.64 107.98 392.56 105.21 390.50 C 102.29 387.29 99.35 383.99 97.59 379.96 Z" fill="#577aed" opacity="1.00" stroke="#577aed" stroke-width="0.25"/>
<path d="M 394.26 385.26 C 397.57 385.54 399.16 381.86 401.50 380.13 C 402.34 381.08 403.13 382.08 404.08 382.94 C 405.43 383.91 407.69 383.02 408.47 384.84 C 402.33 392.54 393.76 397.71 384.86 401.61 C 362.42 412.36 340.18 423.53 317.47 433.70 C 304.83 439.14 292.84 445.95 280.14 451.24 C 279.63 451.10 278.61 450.82 278.10 450.68 C 279.17 449.69 280.25 448.71 281.33 447.74 C 279.79 446.58 278.17 445.52 276.46 444.65 C 276.93 444.11 277.42 443.58 277.90 443.05 C 277.43 443.02 276.50 442.96 276.03 442.93 C 309.07 427.46 341.77 411.26 374.83 395.85 C 381.48 392.66 388.22 389.54 394.26 385.26 Z" fill="#2b37d7" opacity="1.00" stroke="#2b37d7" stroke-width="0.25"/>
<path d="M 121.50 392.83 C 121.24 391.68 120.95 390.54 120.61 389.42 C 134.28 396.42 148.33 402.63 162.10 409.41 C 161.86 410.27 161.61 411.15 161.37 412.02 C 158.22 411.63 155.00 411.23 151.89 412.10 C 151.44 412.99 150.92 413.85 150.05 414.41 C 137.96 408.39 125.71 402.65 113.79 396.30 C 114.38 396.18 115.57 395.93 116.17 395.81 C 115.18 394.90 114.20 393.98 113.23 393.07 C 115.25 393.51 117.24 394.11 119.14 394.94 C 119.93 394.24 120.71 393.53 121.50 392.83 Z" fill="#4964ea" opacity="1.00" stroke="#4964ea" stroke-width="0.25"/>
<path d="M 161.37 412.02 C 161.61 411.15 161.86 410.27 162.10 409.41 C 182.41 419.39 202.89 429.02 223.02 439.38 C 222.85 439.71 222.52 440.39 222.36 440.72 C 224.83 441.99 227.32 443.23 229.82 444.47 C 228.14 445.47 226.44 446.45 224.72 447.40 C 224.51 448.47 224.29 449.54 224.09 450.62 C 199.49 438.38 174.89 426.14 150.05 414.41 C 150.92 413.85 151.44 412.99 151.89 412.10 C 155.00 411.23 158.22 411.63 161.37 412.02 Z" fill="#4054e8" opacity="1.00" stroke="#4054e8" stroke-width="0.25"/>
<path d="M 222.36 440.72 C 222.52 440.39 222.85 439.71 223.02 439.38 C 230.04 442.90 237.16 446.39 244.86 448.18 C 245.43 449.97 246.98 450.35 248.63 450.40 C 247.29 451.48 245.99 452.61 244.73 453.79 C 245.41 454.77 246.10 455.77 246.78 456.77 C 246.25 457.02 245.20 457.52 244.67 457.77 C 237.46 456.55 230.57 453.95 224.09 450.62 C 224.29 449.54 224.51 448.47 224.72 447.40 C 226.44 446.45 228.14 445.47 229.82 444.47 C 227.32 443.23 224.83 441.99 222.36 440.72 Z" fill="#3740d8" opacity="1.00" stroke="#3740d8" stroke-width="0.25"/>
<path d="M 263.85 447.60 C 268.09 446.52 272.02 444.59 276.03 442.93 C 276.50 442.96 277.43 443.02 277.90 443.05 C 277.42 443.58 276.93 444.11 276.46 444.65 C 278.17 445.52 279.79 446.58 281.33 447.74 C 280.25 448.71 279.17 449.69 278.10 450.68 C 278.61 450.82 279.63 451.10 280.14 451.24 C 269.25 456.54 256.82 460.48 244.67 457.77 C 245.20 457.52 246.25 457.02 246.78 456.77 C 246.10 455.77 245.41 454.77 244.73 453.79 C 245.99 452.61 247.29 451.48 248.63 450.40 C 246.98 450.35 245.43 449.97 244.86 448.18 C 251.15 449.03 257.67 449.27 263.85 447.60 Z" fill="#2e33cd" opacity="1.00" stroke="#2e33cd" stroke-width="0.25"/>
</svg>